<?xml version="1.0" standalone="no"?>
<!DOCTYPE svg PUBLIC "-//W3C//DTD SVG 20010904//EN"
 "http://www.w3.org/TR/2001/REC-SVG-20010904/DTD/svg10.dtd">
<svg version="1.0" xmlns="http://www.w3.org/2000/svg"
 width="546.000000pt" height="278.000000pt" viewBox="0 0 546.000000 278.000000"
 preserveAspectRatio="xMidYMid meet">

<g transform="translate(0.000000,278.000000) scale(0.100000,-0.100000)"
fill="#000000" stroke="none">
<path d="M2832 2605 c-8 -18 -19 -25 -38 -25 -26 0 -26 -1 -11 -18 10 -10 17
-29 17 -43 0 -22 4 -24 50 -24 46 0 50 2 50 24 0 14 7 33 17 43 15 17 15 18
-11 18 -19 0 -30 7 -38 25 -6 14 -14 25 -18 25 -4 0 -12 -11 -18 -25z"/>
<path d="M2544 2302 c-152 -149 -559 -543 -568 -550 -1 -1 -49 6 -106 15
l-103 17 -48 -53 c-61 -66 -173 -185 -409 -432 -102 -107 -215 -225 -250 -264
l-65 -69 53 44 c30 25 71 59 92 75 40 32 176 143 213 174 97 83 388 321 392
321 4 0 16 -40 45 -153 l13 -47 36 6 c20 3 85 17 144 31 l108 25 67 101 c37
56 72 108 79 117 14 17 190 278 350 517 59 89 113 163 118 163 6 0 16 -12 22
-27 6 -16 55 -136 108 -268 54 -132 103 -256 111 -275 42 -114 41 -114 49 8 4
62 10 112 13 112 7 0 56 -54 90 -100 15 -19 29 -37 32 -40 3 -3 21 -25 40 -50
19 -25 37 -47 40 -50 9 -7 352 -450 378 -487 13 -18 28 -33 34 -33 5 0 63 43
127 95 65 52 122 95 128 95 10 0 333 -322 380 -378 15 -19 35 -38 45 -43 10
-5 -28 52 -85 128 -155 206 -267 359 -327 443 -78 110 -69 105 -147 77 -38
-14 -81 -31 -97 -38 -27 -13 -30 -11 -63 26 -66 75 -305 334 -433 470 -42 44
-121 129 -175 189 -55 61 -113 124 -130 141 -16 18 -51 55 -77 83 -26 29 -48
52 -50 52 -2 -1 -80 -76 -174 -168z"/>
<path d="M4184 949 c-6 -8 -60 -117 -118 -244 -104 -222 -135 -275 -162 -275
-7 0 -16 -4 -19 -10 -4 -6 27 -10 84 -10 90 0 120 12 61 24 -38 7 -39 28 -5
102 l25 54 115 0 116 0 20 -47 c29 -65 30 -106 4 -111 -11 -2 -24 -8 -30 -13
-5 -5 38 -9 108 -9 71 0 117 4 117 10 0 6 -8 10 -18 10 -10 0 -30 12 -43 28
-21 23 -124 233 -220 451 -19 43 -27 51 -35 40z m21 -191 c15 -35 34 -76 41
-92 8 -16 14 -33 14 -37 0 -4 -43 -9 -95 -11 -52 -2 -95 0 -95 5 0 17 89 197
98 197 4 0 21 -28 37 -62z"/>
<path d="M1025 928 c56 -20 55 -15 55 -239 0 -114 -4 -219 -10 -233 -7 -20
-16 -26 -40 -26 -16 0 -30 -4 -30 -10 0 -6 47 -10 121 -10 77 0 118 4 114 10
-3 6 -17 10 -30 10 -36 0 -45 28 -45 133 l0 94 74 -5 c96 -6 156 20 186 79 46
88 4 166 -106 197 -54 16 -333 15 -289 0z m287 -57 c23 -25 28 -41 28 -80 0
-81 -62 -131 -144 -115 l-36 6 0 107 c0 59 3 111 8 115 4 4 31 6 61 4 46 -4
59 -10 83 -37z"/>
<path d="M1513 930 c58 -17 57 -14 57 -254 0 -239 -1 -246 -52 -246 -15 0 -28
-4 -28 -10 0 -6 47 -10 120 -10 73 0 120 4 120 10 0 6 -13 10 -30 10 -43 0
-51 25 -48 138 l3 97 133 3 132 3 0 -109 c0 -117 -6 -132 -52 -132 -15 0 -28
-4 -28 -10 0 -6 49 -10 126 -10 81 0 123 4 119 10 -3 6 -16 10 -29 10 -44 0
-46 12 -46 245 0 121 4 225 8 232 4 6 23 16 42 21 28 8 8 10 -95 10 -103 0
-123 -2 -95 -10 19 -5 38 -15 42 -21 4 -7 8 -56 8 -109 l0 -98 -120 -1 c-66
-1 -126 -2 -132 -3 -10 -1 -14 27 -16 100 -3 109 -1 113 53 132 24 8 5 10 -95
10 -84 0 -116 -3 -97 -8z"/>
<path d="M2140 928 c57 -15 60 -25 60 -207 0 -91 5 -182 10 -203 23 -82 112
-125 244 -116 75 5 129 30 164 76 27 35 27 39 32 221 3 102 9 194 14 203 4 9
24 21 44 26 30 8 17 10 -73 10 -101 0 -107 -1 -70 -12 l40 -12 3 -184 c2 -160
0 -190 -15 -220 -48 -94 -235 -106 -288 -17 -18 28 -20 54 -23 215 -4 199 -2
205 52 221 22 7 -5 9 -99 9 -102 0 -122 -2 -95 -10z"/>
<path d="M2763 933 c4 -3 19 -8 34 -9 14 -2 30 -9 34 -16 5 -7 9 -112 9 -234
0 -232 -2 -244 -46 -244 -13 0 -26 -4 -29 -10 -4 -6 38 -10 120 -10 82 0 124
4 120 10 -3 6 -16 10 -29 10 -39 0 -46 18 -46 127 l0 102 49 -6 c77 -9 137 4
176 38 89 79 56 197 -66 233 -53 16 -340 24 -326 9z m282 -37 c63 -27 83 -116
41 -181 -21 -32 -85 -51 -128 -39 l-33 10 3 104 c2 58 6 108 9 113 7 12 71 8
108 -7z"/>
<path d="M3280 928 c19 -5 41 -17 48 -26 15 -20 17 -407 2 -446 -7 -20 -17
-26 -39 -26 -16 0 -33 -4 -36 -10 -4 -6 38 -10 120 -10 82 0 124 4 120 10 -3
6 -17 10 -29 10 -40 0 -47 20 -44 131 l3 104 130 0 130 0 3 -97 c3 -113 -6
-138 -48 -138 -16 0 -32 -4 -35 -10 -4 -6 38 -10 119 -10 77 0 126 4 126 10 0
6 -13 10 -30 10 -19 0 -33 7 -40 19 -11 22 -12 400 -1 440 4 16 19 29 41 37
31 11 21 12 -95 12 -102 0 -121 -2 -90 -9 21 -5 43 -15 47 -22 4 -6 8 -56 8
-109 l0 -98 -119 0 c-66 0 -126 -3 -135 -6 -14 -5 -16 7 -16 97 0 57 4 109 8
116 4 6 23 16 42 21 28 8 8 10 -95 10 -102 0 -122 -2 -95 -10z"/>
<path d="M2902 353 c-7 -3 -30 -31 -52 -63 -65 -96 -150 -170 -150 -131 0 25
38 72 65 80 25 8 26 9 8 10 -25 1 -29 11 -11 29 6 6 8 15 4 19 -8 8 -59 -53
-62 -75 -2 -8 -7 -19 -13 -25 -16 -16 -13 -57 4 -63 8 -4 30 5 48 18 54 41 58
42 47 14 -13 -35 0 -33 36 5 16 17 37 35 47 41 16 8 17 7 8 -11 -28 -51 -1
-86 44 -57 23 15 27 15 41 1 8 -8 25 -15 37 -15 21 0 87 34 87 45 0 2 -15 -4
-32 -15 -44 -26 -78 -26 -78 0 0 13 7 20 20 20 35 0 80 29 80 50 0 40 -47 22
-124 -47 -26 -23 -52 -43 -57 -43 -14 0 -11 28 7 66 9 19 14 38 10 41 -3 4
-26 -8 -51 -25 -62 -43 -57 -24 7 30 62 50 87 78 88 96 0 12 -33 15 -58 5z
m38 -12 c0 -10 -66 -81 -75 -81 -13 0 -2 22 26 55 30 34 49 44 49 26z m105
-131 c-10 -11 -25 -20 -34 -20 -12 1 -10 5 8 20 30 26 49 26 26 0z"/>
<path d="M3693 341 c-11 -11 -31 -37 -43 -58 -39 -65 -136 -157 -117 -110 3 6
8 20 12 30 4 10 3 17 -3 17 -14 0 -112 -73 -106 -79 2 -2 18 5 34 18 26 18 30
19 30 5 0 -9 -14 -28 -31 -43 -97 -83 -102 -88 -96 -104 4 -10 17 -17 32 -17
20 0 33 12 64 60 32 49 111 130 127 130 2 0 2 -11 -2 -25 -9 -36 5 -31 49 16
42 44 53 46 38 5 -19 -49 6 -71 45 -40 18 15 18 15 -3 5 -30 -15 -38 2 -19 41
32 64 16 75 -39 27 -19 -17 -35 -26 -35 -20 0 6 12 21 27 34 79 66 103 91 103
108 0 25 -40 25 -67 0z m48 -8 c-14 -26 -70 -77 -77 -71 -3 4 11 25 31 47 38
42 63 55 46 24z m-320 -296 c-19 -20 -31 -26 -31 -17 0 19 54 74 59 59 2 -6
-11 -25 -28 -42z"/>
<path d="M3818 266 c-16 -19 -28 -39 -28 -44 0 -5 -9 -17 -20 -27 -20 -19 -28
-41 -10 -30 6 3 10 -1 10 -9 0 -8 4 -18 10 -21 13 -8 70 23 70 38 0 8 -3 9 -8
1 -4 -6 -17 -16 -29 -23 -21 -10 -23 -9 -23 10 0 39 32 79 65 80 23 1 25 3 8
6 -24 5 -30 18 -13 28 12 7 13 25 3 25 -5 0 -20 -16 -35 -34z"/>
<path d="M4020 292 c0 -5 -8 -17 -17 -28 -28 -31 -55 -90 -51 -110 3 -18 48
-30 48 -13 0 18 42 21 54 3 12 -16 15 -16 50 5 30 19 36 20 36 7 0 -24 8 -20
52 25 42 42 58 46 38 9 -17 -31 -4 -37 23 -12 29 27 41 28 34 2 -3 -10 1 -27
8 -36 12 -17 14 -17 38 -1 24 16 28 16 54 0 35 -19 66 -13 108 21 39 33 29 33
-15 1 -41 -30 -80 -33 -80 -7 0 22 50 72 71 72 8 -1 2 -11 -16 -25 -16 -14
-25 -25 -18 -25 20 0 67 46 59 58 -14 23 -42 12 -101 -38 -33 -27 -63 -50 -67
-50 -4 0 -11 0 -15 0 -10 1 -4 42 8 54 17 18 9 26 -17 16 -34 -13 -34 -13 -34
10 0 27 -9 25 -53 -11 l-38 -31 7 26 c3 14 3 26 0 26 -3 0 -28 -23 -56 -52
-35 -36 -53 -49 -61 -41 -7 7 -5 21 7 46 18 38 11 67 -8 33 -17 -30 -67 -76
-83 -76 -19 0 -19 2 2 44 9 20 28 40 42 45 18 7 21 10 8 10 -14 1 -16 5 -7 20
13 25 13 31 0 31 -5 0 -10 -4 -10 -8z"/>
<path d="M3365 280 c-3 -5 -1 -10 4 -10 6 0 11 5 11 10 0 6 -2 10 -4 10 -3 0
-8 -4 -11 -10z"/>
<path d="M4095 280 c-3 -5 -1 -10 4 -10 6 0 11 5 11 10 0 6 -2 10 -4 10 -3 0
-8 -4 -11 -10z"/>
<path d="M3233 273 c-7 -2 -13 -13 -13 -23 0 -13 5 -17 20 -13 26 7 26 -10 -1
-47 -12 -16 -19 -36 -16 -44 9 -22 30 -20 23 2 -4 11 4 32 19 52 30 41 31 50
4 50 -15 0 -19 5 -15 15 6 15 1 17 -21 8z"/>
<path d="M3460 229 c-19 -12 -48 -35 -64 -50 -17 -16 -33 -29 -38 -29 -4 0 -8
-5 -8 -12 0 -6 9 -3 20 7 16 15 22 15 35 5 12 -10 15 -9 15 5 0 27 58 75 91
75 16 0 29 5 29 10 0 17 -43 11 -80 -11z"/>
<path d="M3327 205 l-28 -35 22 -22 c18 -19 21 -19 16 -5 -4 10 2 35 13 58 25
48 14 51 -23 4z"/>
<path d="M3196 203 c-6 -14 -5 -15 5 -6 7 7 10 15 7 18 -3 3 -9 -2 -12 -12z"/>
<path d="M3270 150 c-9 -6 -10 -10 -3 -10 6 0 15 5 18 10 8 12 4 12 -15 0z"/>
</g>
</svg>
